# AST/ASF file generated using VICON BodyLanguage
# -----------------------------------------------
:version 1.10
:name VICON
:units
  mass 1.0
  length 0.45
  angle deg
:documentation
   .ast/.asf automatically generated from VICON data using
   VICON BodyBuilder and BodyLanguage model FoxedUp or BRILLIANT.MOD
:root
   order TX TY TZ RX RY RZ
   axis XYZ
   position 0 0 0  
   orientation 0 0 0 
:bonedata
  begin
     id 1 
     name lhipjoint
     direction 0.440178 -0.822639 0.359871 
     length 2.53113 
     axis 0 0 0  XYZ
  end
  begin
     id 2 
     name lfemur
     direction 0.34202 -0.939693 0  
     length 7.88132  
     axis 0 0 20  XYZ
    dof rx ry rz
    limits (-160.0 20.0)
           (-70.0 70.0)
           (-60.0 70.0)
  end
  begin
     id 3 
     name ltibia
     direction 0.34202 -0.939693 0   
     length 8.43783   
     axis 0 0 20   XYZ
    dof rx
    limits (-10.0 170.0)
  end
  begin
     id 4 
     name lfoot
     direction 0.0886351 -0.243523 0.965837   
     length 2.63414   
     axis -90 7.62852e-016 20   XYZ
    dof rx rz
    limits (-45.0 90.0)
           (-70.0 20.0)
  end
  begin
     id 5 
     name ltoes
     direction 1.53703e-011 -4.21717e-011 1   
     length 1.31427   
     axis -90 7.62852e-016 20   XYZ
    dof rx
    limits (-90.0 20.0)
  end
  begin
     id 6 
     name rhipjoint
     direction -0.399779 -0.839773 0.367367   
     length 2.47948  
     axis 0 0 0  XYZ 
  end
  begin
     id 7 
     name rfemur
     direction -0.34202 -0.939693 0   
     length 7.74806   
     axis 0 0 -20   XYZ
    dof rx ry rz
    limits (-160.0 20.0)
           (-70.0 70.0)
           (-70.0 60.0)
  end
  begin
     id 8 
     name rtibia
     direction -0.34202 -0.939693 0   
     length 8.74432   
     axis 0 0 -20   XYZ
    dof rx
    limits (-10.0 170.0)
 end
 begin
     id 9 
     name rfoot
     direction -0.108514 -0.298139 0.948334   
     length 2.66102  
     axis -90 -7.62852e-016 -20   XYZ
    dof rx rz
    limits (-45.0 90.0)
           (-20.0 70.0)
  end
  begin
     id 10 
     name rtoes
     direction -1.53392e-011 -4.22077e-011 1   
     length 1.31983   
     axis -90 -7.62852e-016 -20   XYZ
    dof rx
    limits (-90.0 20.0)
  end
  begin
     id 11 
     name lowerback
     direction 0.0113257 0.999866 0.0118602   
     length 2.58694   
     axis 0 0 0   XYZ
    dof rx ry rz
    limits (-20.0 45.0)
           (-30.0 30.0)
           (-30.0 30.0)
  end
  begin
     id 12 
     name upperback
     direction -0.0164747 0.995193 -0.0965375   
     length 2.52368   
     axis 0 0 0   XYZ
    dof rx ry rz
    limits (-20.0 45.0)
           (-30.0 30.0)
           (-30.0 30.0)
  end
  begin
     id 13 
     name thorax
     direction -0.0194301 0.99433 -0.104552   
     length 2.56099   
     axis 0 0 0   XYZ
    dof rx ry rz
    limits (-20.0 45.0)
           (-30.0 30.0)
           (-30.0 30.0)
  end
  begin
     id 14 
     name lowerneck
     direction 0.0148543 0.995587 -0.092657   
     length 1.71582   
     axis 0 0 0   XYZ
    dof rx ry rz
    limits (-20.0 45.0)
           (-30.0 30.0)
           (-30.0 30.0)
  end
  begin
     id 15 
     name upperneck
     direction -0.0135467 0.993656 -0.111639   
     length 1.68937   
     axis 0 0 0   XYZ
    dof rx ry rz
    limits (-20.0 45.0)
           (-30.0 30.0)
           (-30.0 30.0)
  end
  begin
     id 16
     name head
     direction -0.00615349 0.999547 -0.029448  
     length 1.7462  
     axis 0 0 0   XYZ
    dof rx ry rz
    limits (-20.0 45.0)
           (-30.0 30.0)
           (-30.0 30.0)
  end
  begin
     id 17 
     name lclavicle
     direction 0.988267 0.149885 0.0293713  
     length 4.47222  
     axis 0 0 0   XYZ
    dof ry rz
    limits (-20.0 10.0)
           (0.0 20.0)
  end
  begin
     id 18 
     name lhumerus
     direction 1 -4.48986e-011 -1.14833e-027   
     length 5.37148   
     axis 180 -30 -90   XYZ
    dof rx ry rz
    limits (-60.0 90.0)
           (-90.0 90.0)
           (-90.0 90.0)
  end
  begin
     id 19
     name lradius
     direction 0.999998 0.00170963 -0.000987055   
     length 3.94212   
     axis 180 -30 -90   XYZ
    dof rx
    limits (-10.0 170.0)
  end
  begin
     id 20
     name lwrist
     direction 0.999998 7.53149e-005 -0.00194706   
     length 1.97106   
     axis 4.65056e-015 90 90   XYZ
    dof ry
    limits (-180.0 0.0)
 end
  begin
     id 21 
     name lhand
     direction 1 -4.48973e-011 -1.31746e-026   
     length 1.17917   
     axis 8.4065e-015 90 90   XYZ
    dof rx rz
    limits (-90.0 90.0)
           (-45.0 45.0)
  end
  begin
     id 22 
     name lfingers
     direction 1 -4.49107e-011 -2.63492e-026   
     length 0.950679   
     axis 1.6813e-014 90 90   XYZ
    dof rx
    limits (0.0 90.0)
  end
  begin
     id 23
     name lthumb
     direction 0.707107 -6.35048e-011 0.707107   
     length 1.36499   
     axis -90 45 2.85299e-015   XYZ
    dof rx rz
    limits (-45.0 45.0)
           (-45.0 45.0)
  end
  begin
     id 24 
     name rclavicle
     direction -0.996699 0.0642895 -0.0495725   
     length 4.62611  
     axis 0 0 0   XYZ 
    dof ry rz
    limits (-10.0 20.0)
           (-20.0 0.0)
  end
  begin
     id 25 
     name rhumerus
     direction -1 -4.48919e-011 -2.41059e-027  
     length 5.4981   
     axis 180 30 90   XYZ
    dof rx ry rz
    limits (-90.0 60.0)
           (-90.0 90.0)
           (-90.0 90.0)
  end
  begin
     id 26 
     name rradius
     direction -0.999999 0.00118101 -0.000681858   
     length 3.48381   
     axis 180 30 90   XYZ
    dof rx
    limits (-10.0 170.0)
  end
  begin
     id 27 
     name rwrist
     direction -0.999999 0.000321823 -0.00132288   
     length 1.7419   
     axis 4.65056e-015 -90 -90   XYZ
    dof ry
    limits (-180.0 0.0)
  end
  begin
     id 28
     name rhand
     direction -1 -4.49022e-011 -1.31746e-026   
     length 1.34932   
     axis 8.4065e-015 -90 -90   XYZ
    dof rx rz
    limits (-90.0 90.0)
           (-45.0 45.0)
  end
  begin
     id 29
     name rfingers
     direction -1 -4.49178e-011 -2.63492e-026   
     length 1.08785   
     axis 1.6813e-014 -90 -90   XYZ
    dof rx
    limits (0.0 90.0)
  end
  begin
     id 30
     name rthumb
     direction -0.707107 -6.34713e-011 0.707107   
     length 1.56195   
     axis -90 -45 -2.85299e-015   XYZ
    dof rx rz
    limits (-45.0 45.0)
           (-45.0 45.0)
  end
:hierarchy
  begin
    root lhipjoint rhipjoint lowerback
    lhipjoint lfemur
    lfemur ltibia
    ltibia lfoot
    lfoot ltoes
    rhipjoint rfemur
    rfemur rtibia
    rtibia rfoot
    rfoot rtoes
    lowerback upperback
    upperback thorax
    thorax lowerneck lclavicle rclavicle
    lowerneck upperneck
    upperneck head
    lclavicle lhumerus
    lhumerus lradius
    lradius lwrist
    lwrist lhand lthumb
    lhand lfingers
    rclavicle rhumerus
    rhumerus rradius
    rradius rwrist
    rwrist rhand rthumb
    rhand rfingers
  end

#!OML:ASF X:\für Bonn\!DataBase\2005_08_10_Bjorn_Final\c3d\bjorn.ASF
:FULLY-SPECIFIED
:DEGREES
16
root 2.43257 18.1433 4.02675 -164.621 -36.7357 172.605
lowerback 11.3113 0.287168 -4.17852
upperback 14.2732 -1.65399 -2.97226
thorax 8.94349 -1.82236 -0.921965
lowerneck -8.2586 -7.02706 -5.9613
upperneck -2.60978 -9.21766 12.3347
head 1.44933 -4.52702 4.27264
rclavicle 3.29983e-014 -1.31198e-014
rhumerus -35.4383 -10.3217 -95.1575
rradius 34.1685
rwrist 2.96943
rhand -11.0772 17.3242
rfingers 7.12502
rthumb 14.9461 -12.1166
lclavicle 3.29983e-014 -1.31198e-014
lhumerus 3.17524 -43.6297 73.7674
lradius 62.375
lwrist -15.7349
lhand -52.2095 -24.7179
lfingers 7.12502
lthumb -24.7083 3.70658
rfemur -47.345 -11.3928 9.42075
rtibia 58.4374
rfoot -16.9367 3.80319
rtoes -18.5645
lfemur -11.2638 5.57024 -14.0655
ltibia 36.7182
lfoot -23.5732 -1.91085
ltoes -32.1365
17
root 2.4648 18.2341 3.96926 -163.686 -37.7373 172.475
lowerback 11.1128 0.153666 -3.92388
upperback 14.186 -1.75586 -2.93697
thorax 8.94815 -1.82686 -1.0206
lowerneck -8.09591 -7.32875 -5.98473
upperneck -2.96916 -9.62641 12.9721
head 1.39364 -4.74823 4.45399
rclavicle 3.49861e-014 -5.88403e-014
rhumerus -35.6239 -10.0936 -95.1612
rradius 34.292
rwrist 3.43798
rhand -11.4325 17.36
rfingers 7.12502
rthumb 14.6038 -12.1058
lclavicle 3.49861e-014 -5.88403e-014
lhumerus 3.70617 -44.1285 73.9633
lradius 63.2281
lwrist -15.1591
lhand -52.3232 -24.2751
lfingers 7.12502
lthumb -24.8172 4.13441
rfemur -47.569 -11.5162 9.49625
rtibia 57.4176
rfoot -16.5828 4.74774
rtoes -18.4477
lfemur -12.2197 5.27968 -13.7587
ltibia 36.3316
lfoot -22.42 -2.70949
ltoes -31.3315
18
root 2.4971 18.3243 3.90979 -162.692 -38.7912 172.279
lowerback 10.9386 -0.0308342 -3.63339
upperback 14.0847 -1.92511 -2.9179
thorax 8.9216 -1.85996 -1.15297
lowerneck -7.8005 -7.59875 -6.08308
upperneck -3.44075 -9.98016 13.6631
head 1.28872 -4.95218 4.67414
rclavicle 1.19271e-015 4.65156e-014
rhumerus -35.9074 -9.83165 -95.1806
rradius 34.5087
rwrist 4.02562
rhand -11.7017 17.3109
rfingers 7.12502
rthumb 14.3444 -12.1735
lclavicle 1.19271e-015 4.65156e-014
lhumerus 4.26479 -44.7173 74.0413
lradius 63.9867
lwrist -14.6069
lhand -52.5753 -24.1061
lfingers 7.12502
lthumb -25.0588 4.26994
rfemur -47.7839 -11.7262 9.5583
rtibia 56.3787
rfoot -16.2257 5.6068
rtoes -17.7421
lfemur -13.2339 5.02392 -13.4816
ltibia 35.9552
lfoot -21.2263 -3.41915
ltoes -30.7445
19
root 2.52966 18.4116 3.84837 -161.743 -39.8898 172.035
lowerback 10.8834 -0.250574 -3.20259
upperback 14.0362 -2.15515 -2.96798
thorax 8.88053 -1.91351 -1.4346
lowerneck -7.6145 -7.86232 -6.15846
upperneck -3.9267 -10.3248 14.3831
head 1.20054 -5.15404 4.89679
rclavicle 8.18993e-014 -1.74931e-014
rhumerus -36.1602 -9.5438 -95.343
rradius 34.6822
rwrist 4.58621
rhand -11.9754 17.3025
rfingers 7.12502
rthumb 14.0807 -12.2004
lclavicle 8.18993e-014 -1.74931e-014
lhumerus 5.02434 -45.4467 73.7957
lradius 64.6447
lwrist -14.1122
lhand -53.1091 -24.2348
lfingers 7.12502
lthumb -25.5702 4.06887
rfemur -47.8929 -11.9255 9.57305
rtibia 55.3323
rfoot -15.8379 6.2583
rtoes -16.5084
lfemur -14.188 4.91131 -13.2002
ltibia 35.5848
lfoot -19.9598 -4.21218
ltoes -30.0882
20
root 2.56253 18.4947 3.78571 -160.834 -40.9816 171.75
lowerback 10.9753 -0.471381 -2.74588
upperback 13.9722 -2.39658 -2.98275
thorax 8.73621 -1.97388 -1.68461
lowerneck -7.51015 -8.14958 -6.4189
upperneck -4.36636 -10.6846 15.1308
head 1.15628 -5.35845 5.1519
rclavicle 1.55052e-014 5.1684e-015
rhumerus -36.4999 -9.11762 -95.4743
rradius 34.8222
rwrist 5.089
rhand -12.2829 17.3282
rfingers 7.12502
rthumb 13.7844 -12.1951
lclavicle 1.55052e-014 5.1684e-015
lhumerus 5.73302 -46.2298 73.5944
lradius 65.3556
lwrist -13.7766
lhand -53.5656 -24.7866
lfingers 7.12502
lthumb -26.0075 3.45351
rfemur -47.9415 -12.0857 9.52295
rtibia 54.3141
rfoot -15.4373 6.65812
rtoes -14.5875
lfemur -15.0754 4.96236 -12.946
ltibia 35.2163
lfoot -18.6615 -4.96995
ltoes -29.8248
21
root 2.59572 18.5688 3.72255 -159.937 -42.0608 171.392
lowerback 11.127 -0.684959 -2.30309
upperback 13.9196 -2.6356 -2.99405
thorax 8.56972 -2.03794 -1.92047
lowerneck -7.39535 -8.43166 -6.64859
upperneck -4.83421 -11.0343 15.8241
head 1.10003 -5.56204 5.38783
rclavicle 4.41302e-014 -9.56154e-014
rhumerus -36.9262 -8.58103 -95.6211
rradius 35.0301
rwrist 5.48113
rhand -12.5115 17.3687
rfingers 7.12502
rthumb 13.5641 -12.1695
lclavicle 4.41302e-014 -9.56154e-014
lhumerus 6.45434 -47.0898 73.2938
lradius 66.2123
lwrist -13.4225
lhand -53.6859 -25.7181
lfingers 7.12502
lthumb -26.1226 2.50507
rfemur -47.9471 -12.233 9.40944
rtibia 53.3593
rfoot -14.9636 6.60455
rtoes -12.3431
lfemur -15.8811 4.84939 -12.761
ltibia 34.8543
lfoot -17.4465 -5.40305
ltoes -30.1222
22
root 2.62875 18.6331 3.65942 -159.003 -43.0641 170.952
lowerback 11.2494 -0.883687 -1.99516
upperback 13.8648 -2.86114 -2.96884
thorax 8.42268 -2.1109 -2.04353
lowerneck -7.20087 -8.67865 -6.85059
upperneck -5.36046 -11.3298 16.422
head 1.00316 -5.74608 5.59991
rclavicle -3.22031e-014 5.28767e-014
rhumerus -37.4341 -7.96196 -95.6953
rradius 35.246
rwrist 5.89185
rhand -12.6576 17.5422
rfingers 7.12502
rthumb 13.4232 -12.0053
lclavicle -3.22031e-014 5.28767e-014
lhumerus 7.10831 -47.8364 73.0433
lradius 67.0777
lwrist -13.3632
lhand -53.5196 -26.7791
lfingers 7.12502
lthumb -25.9634 1.46748
rfemur -47.9769 -12.353 9.23513
rtibia 52.5291
rfoot -14.6745 6.18207
rtoes -10.8087
lfemur -16.6625 4.68045 -12.6706
ltibia 34.5713
lfoot -16.3566 -5.6281
ltoes -30.7756
23
root 2.66277 18.6873 3.59546 -158.119 -44.0276 170.487
lowerback 11.419 -1.063 -1.7228
upperback 13.8239 -3.06876 -2.94593
thorax 8.26591 -2.18125 -2.14779
lowerneck -6.94561 -8.89843 -6.94728
upperneck -5.96619 -11.5877 16.952
head 0.860502 -5.92209 5.78361
rclavicle 3.8763e-014 1.98785e-014
rhumerus -37.9904 -7.45766 -95.7126
rradius 35.4838
rwrist 6.36155
rhand -12.6716 17.9523
rfingers 7.12502
rthumb 13.4098 -11.5961
lclavicle 3.8763e-014 1.98785e-014
lhumerus 7.74615 -48.5646 72.7335
lradius 68.0137
lwrist -13.4923
lhand -53.0379 -27.6572
lfingers 7.12502
lthumb -25.5021 0.656203
rfemur -47.9701 -12.4777 9.08371
rtibia 51.8012
rfoot -14.5328 5.47808
rtoes -9.84655
lfemur -17.3449 4.54987 -12.5982
ltibia 34.3276
lfoot -15.317 -5.81016
ltoes -31.6498
24
root 2.69813 18.7184 3.53314 -157.217 -44.9222 169.896
lowerback 11.6423 -1.21157 -1.54338
upperback 13.8365 -3.25494 -2.92133
thorax 8.14514 -2.25541 -2.19997
lowerneck -6.84395 -9.13326 -7.04868
upperneck -6.56012 -11.862 17.45
head 0.748292 -6.10323 5.95094
rclavicle -8.26944e-014 -4.67144e-014
rhumerus -38.4289 -6.93575 -95.6714
rradius 35.6451
rwrist 6.83525
rhand -12.6245 18.5554
rfingers 7.12502
rthumb 13.4551 -10.99
lclavicle -8.26944e-014 -4.67144e-014
lhumerus 8.58127 -49.2257 72.2919
lradius 69.032
lwrist -13.9365
lhand -52.4566 -28.0798
lfingers 7.12502
lthumb -24.9451 0.312059
rfemur -47.9812 -12.5912 8.83176
rtibia 51.2074
rfoot -14.439 4.68419
rtoes -8.33726
lfemur -17.9536 4.53358 -12.6242
ltibia 34.1755
lfoot -14.3364 -6.02405
ltoes -32.6787
25
root 2.73327 18.7526 3.47019 -156.379 -45.729 169.23
lowerback 11.9514 -1.33328 -1.44005
upperback 13.9201 -3.43022 -2.87886
thorax 8.06344 -2.33944 -2.19119
lowerneck -6.91624 -9.38881 -7.24965
upperneck -7.13225 -12.1559 17.9529
head 0.682156 -6.28735 6.12541
rclavicle -4.69132e-014 3.51849e-014
rhumerus -38.6704 -6.24247 -95.5874
rradius 35.6076
rwrist 7.20933
rhand -12.6548 19.2849
rfingers 7.12502
rthumb 13.426 -10.2624
lclavicle -4.69132e-014 3.51849e-014
lhumerus 9.5889 -49.8127 71.7171
lradius 70.1759
lwrist -14.4248
lhand -51.7429 -28.1045
lfingers 7.12502
lthumb -24.261 0.380506
rfemur -47.8383 -12.675 8.53196
rtibia 50.6468
rfoot -14.4896 3.74962
rtoes -7.1879
lfemur -18.3756 4.55587 -12.7288
ltibia 34.0664
lfoot -13.4184 -6.23311
ltoes -33.6353
26
root 2.76791 18.7792 3.4076 -155.619 -46.4884 168.535
lowerback 12.3609 -1.45148 -1.37619
upperback 14.0249 -3.61507 -2.79427
thorax 7.95598 -2.43786 -2.10975
lowerneck -7.0857 -9.64406 -7.58083
upperneck -7.67735 -12.4393 18.4405
head 0.648402 -6.45902 6.31067
rclavicle 4.45278e-014 8.97513e-014
rhumerus -38.8874 -5.41365 -95.425
rradius 35.5098
rwrist 7.51745
rhand -12.7839 19.9714
rfingers 7.12502
rthumb 13.3015 -9.58405
lclavicle 4.45278e-014 8.97513e-014
lhumerus 10.6134 -50.253 71.2254
lradius 71.3743
lwrist -15.0279
lhand -50.9758 -27.8543
lfingers 7.12502
lthumb -23.5254 0.727004
rfemur -47.5646 -12.6963 8.20475
rtibia 50.1425
rfoot -14.7449 2.58911
rtoes -6.09885
lfemur -18.6448 4.47426 -12.8576
ltibia 34.0417
lfoot -12.6129 -6.30355
ltoes -34.4871
27
root 2.80232 18.7992 3.34485 -154.966 -47.2051 167.875
lowerback 12.8906 -1.57558 -1.31085
upperback 14.1083 -3.81213 -2.66705
thorax 7.76217 -2.54584 -1.97228
lowerneck -7.17907 -9.89138 -8.0341
upperneck -8.27002 -12.6981 18.9213
head 0.595994 -6.62087 6.52003
rclavicle 9.44227e-015 -4.16454e-014
rhumerus -39.173 -4.51169 -95.1792
rradius 35.4313
rwrist 7.74972
rhand -12.9978 20.4086
rfingers 7.12502
rthumb 13.0953 -9.1603
lclavicle 9.44227e-015 -4.16454e-014
lhumerus 11.4823 -50.5276 70.9101
lradius 72.6172
lwrist -15.7135
lhand -50.201 -27.3744
lfingers 7.12502
lthumb -22.782 1.30033
rfemur -47.1579 -12.5852 7.87416
rtibia 49.6602
rfoot -15.1622 1.28513
rtoes -6.18195
lfemur -18.7616 4.43163 -12.9436
ltibia 34.0445
lfoot -11.7184 -6.14996
ltoes -34.9426
28
root 2.835 18.8116 3.28194 -154.372 -47.8714 167.257
lowerback 13.4877 -1.7226 -1.2213
upperback 14.151 -4.03369 -2.53871
thorax 7.48576 -2.66313 -1.83547
lowerneck -7.25622 -10.0946 -8.47148
upperneck -8.83581 -12.9003 19.3486
head 0.538535 -6.75352 6.71554
rclavicle 1.28713e-014 -1.31198e-014
rhumerus -39.533 -3.59383 -94.914
rradius 35.3506
rwrist 7.91722
rhand -13.3118 20.7142
rfingers 7.12502
rthumb 12.7926 -8.87383
lclavicle 1.28713e-014 -1.31198e-014
lhumerus 12.1685 -50.6451 70.7222
lradius 73.89
lwrist -16.442
lhand -49.4996 -26.4929
lfingers 7.12502
lthumb -22.1088 2.26305
rfemur -46.7073 -12.3206 7.52416
rtibia 49.239
rfoot -15.6359 0.0641785
rtoes -6.8344
lfemur -18.7759 4.3354 -12.9782
ltibia 34.1225
lfoot -10.7871 -5.68065
ltoes -34.5736
29
root 2.86838 18.811 3.21814 -153.899 -48.5119 166.731
lowerback 14.1278 -1.89479 -1.13905
upperback 14.1889 -4.29106 -2.36798
thorax 7.18711 -2.80229 -1.64082
lowerneck -7.32724 -10.2575 -8.91679
upperneck -9.40525 -13.0473 19.7032
head 0.46777 -6.85824 6.89607
rclavicle 1.83975e-013 -1.07046e-013
rhumerus -39.7467 -2.65402 -94.592
rradius 35.0193
rwrist 8.13535
rhand -13.7009 21.023
rfingers 7.12502
rthumb 12.4175 -8.58818
lclavicle 1.83975e-013 -1.07046e-013
lhumerus 12.6972 -50.5163 70.705
lradius 75.1051
lwrist -17.2208
lhand -48.7899 -25.3482
lfingers 7.12502
lthumb -21.4272 3.48686
rfemur -46.2142 -11.8757 7.19813
rtibia 48.8986
rfoot -16.1453 -1.02158
rtoes -7.16447
lfemur -18.6783 4.34781 -12.9047
ltibia 34.2647
lfoot -9.84447 -5.34807
ltoes -33.6071
30
root 2.90266 18.7995 3.15396 -153.513 -49.1365 166.255
lowerback 14.8157 -2.10933 -1.05956
upperback 14.2019 -4.6016 -2.19121
thorax 6.83903 -2.9685 -1.42469
lowerneck -7.37493 -10.3596 -9.33469
upperneck -9.94849 -13.1184 20.0158
head 0.386001 -6.9249 7.06739
rclavicle -9.62242e-015 1.6934e-014
rhumerus -39.83 -1.81784 -94.1876
rradius 34.4069
rwrist 8.52293
rhand -14.1607 21.3291
rfingers 7.12502
rthumb 11.9742 -8.30838
lclavicle -9.62242e-015 1.6934e-014
lhumerus 13.0104 -50.145 70.8502
lradius 76.2035
lwrist -17.9005
lhand -48.0718 -24.7668
lfingers 7.12502
lthumb -20.7374 4.14514
rfemur -45.7175 -11.3748 6.91195
rtibia 48.6687
rfoot -16.6752 -1.97402
rtoes -7.79231
lfemur -18.4763 4.1421 -12.7761
ltibia 34.4532
lfoot -9.02065 -4.68687
ltoes -32.6615
